<svg xmlns="http://www.w3.org/2000/svg" viewBox="0 0 1200 630" width="1200" height="630">
  <defs>
    <linearGradient id="bg" x1="120" y1="40" x2="1080" y2="590" gradientUnits="userSpaceOnUse">
      <stop offset="0" stop-color="#08101B"/>
      <stop offset="0.48" stop-color="#090B14"/>
      <stop offset="1" stop-color="#04060B"/>
    </linearGradient>
    <radialGradient id="glowA" cx="0" cy="0" r="1" gradientUnits="userSpaceOnUse" gradientTransform="translate(280 120) rotate(24) scale(380 260)">
      <stop stop-color="#38BDF8" stop-opacity="0.22"/>
      <stop offset="1" stop-color="#38BDF8" stop-opacity="0"/>
    </radialGradient>
    <radialGradient id="glowB" cx="0" cy="0" r="1" gradientUnits="userSpaceOnUse" gradientTransform="translate(980 120) rotate(150) scale(420 280)">
      <stop stop-color="#A855F7" stop-opacity="0.22"/>
      <stop offset="1" stop-color="#A855F7" stop-opacity="0"/>
    </radialGradient>
    <linearGradient id="iconBg" x1="110" y1="98" x2="206" y2="194" gradientUnits="userSpaceOnUse">
      <stop offset="0" stop-color="#0F172A"/>
      <stop offset="0.55" stop-color="#141B34"/>
      <stop offset="1" stop-color="#22143F"/>
    </linearGradient>
    <linearGradient id="iconFrame" x1="124" y1="110" x2="188" y2="184" gradientUnits="userSpaceOnUse">
      <stop offset="0" stop-color="#67E8F9"/>
      <stop offset="0.5" stop-color="#818CF8"/>
      <stop offset="1" stop-color="#C084FC"/>
    </linearGradient>
    <linearGradient id="iconPulse" x1="142" y1="146" x2="178" y2="146" gradientUnits="userSpaceOnUse">
      <stop offset="0" stop-color="#22D3EE"/>
      <stop offset="1" stop-color="#A855F7"/>
    </linearGradient>
    <linearGradient id="headline" x1="110" y1="240" x2="620" y2="420" gradientUnits="userSpaceOnUse">
      <stop offset="0" stop-color="#FFFFFF"/>
      <stop offset="1" stop-color="#C4B5FD"/>
    </linearGradient>
    <linearGradient id="cardStroke" x1="710" y1="124" x2="1096" y2="500" gradientUnits="userSpaceOnUse">
      <stop offset="0" stop-color="#FFFFFF" stop-opacity="0.14"/>
      <stop offset="1" stop-color="#FFFFFF" stop-opacity="0.04"/>
    </linearGradient>
  </defs>

  <rect width="1200" height="630" fill="url(#bg)"/>
  <rect width="1200" height="630" fill="url(#glowA)"/>
  <rect width="1200" height="630" fill="url(#glowB)"/>
  <rect width="1200" height="1" fill="rgba(129,140,248,0.45)"/>

  <g opacity="0.18">
    <circle cx="92" cy="86" r="2" fill="#67E8F9"/>
    <circle cx="1108" cy="96" r="2" fill="#C084FC"/>
    <circle cx="1086" cy="544" r="2" fill="#38BDF8"/>
    <circle cx="122" cy="554" r="2" fill="#A855F7"/>
  </g>

  <g>
    <rect x="110" y="98" width="96" height="96" rx="30" fill="url(#iconBg)"/>
    <rect x="111" y="99" width="94" height="94" rx="29" stroke="rgba(255,255,255,0.08)"/>
    <path d="M136 126C136 122.686 138.686 120 142 120H150C153.314 120 156 122.686 156 126V166C156 169.314 153.314 172 150 172H142C138.686 172 136 169.314 136 166V126Z" fill="none" stroke="url(#iconFrame)" stroke-width="5" stroke-linejoin="round"/>
    <path d="M160 126C160 122.686 162.686 120 166 120H174C177.314 120 180 122.686 180 126V140.5C180 143.814 177.314 146.5 174 146.5H166C162.686 146.5 160 143.814 160 140.5V126Z" fill="none" stroke="url(#iconFrame)" stroke-width="5" stroke-linejoin="round"/>
    <path d="M158 146.5H174.5C177.538 146.5 180 148.962 180 152V166C180 169.314 177.314 172 174 172H166C162.686 172 160 169.314 160 166V146.5Z" fill="none" stroke="url(#iconFrame)" stroke-width="5" stroke-linejoin="round"/>
    <path d="M143 146H177" stroke="url(#iconPulse)" stroke-width="4.2" stroke-linecap="round"/>
    <circle cx="143" cy="146" r="3.2" fill="#CFFAFE"/>
    <circle cx="177" cy="146" r="3.2" fill="#F5D0FE"/>
  </g>

  <g>
    <text x="110" y="264" font-family="'Segoe UI', 'Helvetica Neue', Arial, sans-serif" font-size="64" font-weight="700" letter-spacing="-2" fill="url(#headline)">PonsLink</text>
    <text x="112" y="308" font-family="'Segoe UI', 'Helvetica Neue', Arial, sans-serif" font-size="22" font-weight="600" letter-spacing="2.6" fill="#A1A1AA">PRIVATE LINK COMMUNICATION</text>
    <text x="110" y="390" font-family="'Segoe UI', 'Helvetica Neue', Arial, sans-serif" font-size="54" font-weight="700" fill="#FFFFFF">From first contact</text>
    <text x="110" y="452" font-family="'Segoe UI', 'Helvetica Neue', Arial, sans-serif" font-size="54" font-weight="700" fill="#FFFFFF">to real conversation.</text>
    <text x="110" y="514" font-family="'Segoe UI', 'Helvetica Neue', Arial, sans-serif" font-size="24" font-weight="400" fill="#71717A">Trusted requests, schedule approval, and live sessions in one private link.</text>
  </g>

  <g>
    <rect x="706" y="126" width="388" height="372" rx="32" fill="#0B1018" stroke="url(#cardStroke)" stroke-width="1.5"/>
    <rect x="734" y="154" width="332" height="316" rx="26" fill="#0E1521" stroke="rgba(255,255,255,0.06)"/>
    <circle cx="838" cy="286" r="68" fill="#182231"/>
    <circle cx="962" cy="276" r="56" fill="#161A2B"/>
    <path d="M790 232C806 206 828 192 854 192C886 192 912 214 924 244C900 232 878 228 854 228C828 228 808 232 790 232Z" fill="#293243"/>
    <path d="M916 246C926 220 944 204 966 204C990 204 1008 220 1018 246C998 236 984 232 966 232C948 232 934 236 916 246Z" fill="#2A2343"/>
    <circle cx="830" cy="282" r="64" fill="#D7B6A4"/>
    <circle cx="962" cy="274" r="52" fill="#E3C2AF"/>
    <path d="M786 396C804 354 830 330 860 330C894 330 920 354 934 396V428H786V396Z" fill="#3B82F6" fill-opacity="0.35"/>
    <path d="M916 382C928 350 946 334 968 334C992 334 1012 350 1020 382V410H916V382Z" fill="#8B5CF6" fill-opacity="0.36"/>
    <circle cx="810" cy="278" r="5" fill="#1F2937"/>
    <circle cx="850" cy="278" r="5" fill="#1F2937"/>
    <circle cx="946" cy="272" r="4.2" fill="#1F2937"/>
    <circle cx="978" cy="272" r="4.2" fill="#1F2937"/>
    <path d="M816 304C824 314 834 320 844 320C854 320 864 314 872 304" stroke="#7C2D12" stroke-width="4.6" stroke-linecap="round"/>
    <path d="M950 294C958 302 966 306 974 306C982 306 990 302 996 294" stroke="#7C2D12" stroke-width="4.2" stroke-linecap="round"/>
    <path d="M870 246C896 228 922 228 950 246" stroke="rgba(56,189,248,0.62)" stroke-width="4.5" stroke-linecap="round" stroke-dasharray="1 13"/>
    <rect x="796" y="178" width="80" height="34" rx="17" fill="#101A28" stroke="rgba(103,232,249,0.3)"/>
    <path d="M818 196C826 188 836 184 846 184C856 184 866 188 874 196" stroke="#67E8F9" stroke-width="3" stroke-linecap="round"/>
    <rect x="968" y="184" width="66" height="28" rx="14" fill="#1E1630" stroke="rgba(196,181,253,0.24)"/>
    <path d="M992 192L1008 198L992 204V192Z" fill="#E9D5FF"/>
    <path d="M846 364H972" stroke="rgba(255,255,255,0.10)" stroke-width="12" stroke-linecap="round"/>
    <path d="M846 364H918" stroke="url(#iconPulse)" stroke-width="12" stroke-linecap="round"/>
    <circle cx="788" cy="420" r="13" fill="#111827" stroke="#334155"/>
    <circle cx="826" cy="420" r="13" fill="#111827" stroke="#334155"/>
    <circle cx="864" cy="420" r="13" fill="#EF4444"/>
    <path d="M783 420H793" stroke="#E5E7EB" stroke-width="2.8" stroke-linecap="round"/>
    <rect x="821" y="415" width="10" height="10" rx="2.6" stroke="#E5E7EB" stroke-width="2.2"/>
    <path d="M859 415L869 425M869 415L859 425" stroke="#FDF2F8" stroke-width="2.5" stroke-linecap="round"/>
  </g>
</svg>
